<?xml version="1.0" encoding="utf-8"?>
<!-- Generator: Adobe Illustrator 19.2.0, SVG Export Plug-In . SVG Version: 6.00 Build 0)  -->
<svg version="1.1" id="Layer_1" xmlns="http://www.w3.org/2000/svg" xmlns:xlink="http://www.w3.org/1999/xlink" x="0px" y="0px"
	 viewBox="0 0 90.7 100.3" style="enable-background:new 0 0 90.7 100.3;" xml:space="preserve">
<path d="M37.4,52.3c-8.3,0-15-6.7-15-15c0-8.3,6.7-15,15-15c8.3,0,15,6.7,15,15C52.4,45.6,45.7,52.3,37.4,52.3 M37.7,1.3
	c-22.3,0-37,16.8-36.3,37.2c0.6,18.1,14.5,33.6,35.2,32.1l-20.1,29.5h26.6l13.2-20.2c10.4-15.8,17.1-28.2,17.1-41.8
	C73.2,17.9,59.8,1.3,37.7,1.3"/>
<path d="M75.9,73.8c7.3,0,13.2,5.9,13.2,13.2c0,7.5-5.9,13.2-13.2,13.2c-7.3,0-13.1-5.9-13.1-13.2C62.8,79.8,68.4,73.8,75.9,73.8"/>
</svg>
